<svg xmlns="http://www.w3.org/2000/svg" viewBox="0 0 88 88" fill="none"><style>svg{color:#d4d4d4}</style><path fill-rule="evenodd" clip-rule="evenodd" d="M44 0C7.766 0 0 7.766 0 44C0 80.234 7.766 88 44 88C80.234 88 88 80.234 88 44C88 7.766 80.234 0 44 0ZM39.1171 32.53C39.6448 32.8121 40 33.4016 40 34C40 36.2091 41.7909 38 44 38C46.2091 38 48 36.2091 48 34C48 33.4016 48.3552 32.8121 48.8829 32.53C50.1428 31.8566 51 30.5284 51 29C51 26.7909 49.2091 25 47 25C46.6142 25 46.2411 25.0546 45.8881 25.1566C44.7322 25.4904 43.2678 25.4904 42.1119 25.1566C41.7589 25.0546 41.3858 25 41 25C38.7909 25 37 26.7909 37 29C37 30.5284 37.8572 31.8566 39.1171 32.53ZM40.6174 37.6822C40.4565 37.7954 40.3289 37.9561 40.2566 38.1489L39.2486 40.837C39.0877 41.266 39.079 41.7371 39.2238 42.1717L40.8506 47.0521C40.9488 47.3466 41.1133 47.6174 41.374 47.786C41.8309 48.0815 42.7062 48.5 43.9999 48.5C45.2937 48.5 46.169 48.0815 46.6259 47.786C46.8866 47.6174 47.0511 47.3466 47.1492 47.0521L48.776 42.1717C48.9209 41.7371 48.9122 41.266 48.7513 40.837L47.7433 38.1489C47.671 37.9561 47.5434 37.7954 47.3825 37.6822C46.4922 38.5005 45.3044 39 43.9999 39C42.6955 39 41.5077 38.5005 40.6174 37.6822ZM42 60L41.0211 48.7423C41.6348 49.0994 42.6312 49.5 44 49.5C45.3684 49.5 46.365 49.0996 46.979 48.7423L46 60C46 60 45.5 60.5 44 60.5C42.5 60.5 42 60 42 60ZM42.5 68L42.0111 61.1559C42.0291 61.1635 42.0474 61.171 42.0662 61.1785C42.5095 61.3558 43.1373 61.5 44 61.5C44.8628 61.5 45.4906 61.3558 45.9339 61.1785C45.9526 61.171 45.9709 61.1635 45.9888 61.156L45.5 68C45.5 68 45.25 69 44 69C42.75 69 42.5 68 42.5 68ZM18.4999 40H38.4C37.6448 41.2587 37.9828 42.1357 38.3163 43.001L38.3164 43.0012L38.3164 43.0013L38.3165 43.0014L38.3165 43.0015L38.3166 43.0017C38.3804 43.1673 38.4441 43.3326 38.4999 43.5L19.817 48.8504C18.6241 49.1865 17.3473 48.7543 16.6036 47.7628L15.4279 46.1951C14.7461 45.2861 14.6364 44.0698 15.1446 43.0535L15.8422 41.6582C16.3462 40.6501 17.3729 40.0096 18.4999 40ZM16 38.4663L38.7499 39C38.7499 39 39.1093 38.1012 39.2499 37.5C39.2981 37.294 39.349 37.0881 39.3922 36.9172C39.4529 36.6771 39.3398 36.4307 39.1124 36.3324C36.4624 35.187 21.0442 28.5249 18.4745 27.4663C17.4762 27.0394 16.3252 27.1853 15.4649 27.8476L13.17 29.6144C12.4171 30.1941 11.9975 31.0823 12 32C12.0008 32.2913 12.0441 32.5855 12.1328 32.8738L13.2451 36.4663C13.6189 37.6811 14.7301 38.4133 16 38.4663ZM69.5 40H49.6C50.3552 41.2587 50.0172 42.1357 49.6836 43.001L49.6836 43.0012L49.6835 43.0013L49.6835 43.0014C49.6196 43.1672 49.5559 43.3325 49.5 43.5L68.1829 48.8504C69.3759 49.1865 70.6527 48.7543 71.3963 47.7628L72.5721 46.1951C73.2539 45.2861 73.3636 44.0698 72.8554 43.0535L72.1578 41.6583C71.6537 40.6501 70.6271 40.0096 69.5 40ZM72 38.4663L49.25 39C49.25 39 48.8907 38.1012 48.75 37.5C48.7018 37.294 48.6509 37.0881 48.6077 36.9173C48.547 36.6771 48.6602 36.4307 48.8875 36.3325C51.5376 35.187 66.9558 28.5249 69.5255 27.4663C70.5238 27.0394 71.6748 27.1853 72.5351 27.8476L74.83 29.6144C75.5829 30.1941 76.0025 31.0823 76 32C75.9992 32.2913 75.9559 32.5855 75.8672 32.8738L74.7549 36.4663C74.3811 37.6811 73.2699 38.4133 72 38.4663Z" fill="currentColor"/></svg>
