<svg version="1.1" id="svg1326" viewBox="0 0 160 182" sodipodi:docname="keydb.svg" inkscape:version="1.1.1 (3bf5ae0d25, 2021-09-20)" xmlns:inkscape="http://www.inkscape.org/namespaces/inkscape" xmlns:sodipodi="http://sodipodi.sourceforge.net/DTD/sodipodi-0.dtd" xmlns="http://www.w3.org/2000/svg" xmlns:svg="http://www.w3.org/2000/svg"><style>svg{color:#d4d4d4}</style><defs id="defs1330"/><sodipodi:namedview id="namedview1328" pagecolor="currentColor" bordercolor="#666666" borderopacity="1.0" inkscape:pageshadow="2" inkscape:pageopacity="0.00784314" inkscape:pagecheckerboard="true" showgrid="false" inkscape:zoom="1.5064209" inkscape:cx="374.06544" inkscape:cy="123.80338" inkscape:window-width="1536" inkscape:window-height="889" inkscape:window-x="-8" inkscape:window-y="-8" inkscape:window-maximized="1" inkscape:current-layer="svg1326"/><path d="M 78.589334,169.85617 12.63903,131.77977 c -1.0281,-0.591 -1.6035,-1.6659 -1.6046,-2.7722 h -0.0134 V 52.833267 c 0,-1.2966 0.7688,-2.4135 1.8749,-2.9206 l 65.739904,-37.9545 c 1.0386,-0.5966 2.2717,-0.5456 3.2321,0.0264 l 65.951096,38.0761 c 1.0282,0.591 1.6042,1.6659 1.6047,2.7726 h 0.0134 v 76.174303 c 0,1.2962 -0.7685,2.4137 -1.8743,2.9202 l -65.740496,37.9554 c -1.0389,0.5964 -2.2717,0.5453 -3.233,-0.027 z M 17.44353,127.16987 v 0 l 62.785704,36.2488 62.785996,-36.2488 V 54.671267 l -62.785996,-36.2489 -62.785704,36.2489 z" style="fill:currentColor;fill-rule:evenodd" id="path1290"/><path d="M 80.229234,14.730167 14.23273,129.00757 h 131.9933 z" style="opacity:.88;fill:#ff0;fill-opacity:1;fill-rule:evenodd" id="path1292"/><path d="M 80.229234,21.136467 19.78603,125.79677 h 120.8861 z M 11.45983,127.40197 v 0 L 77.433934,13.163767 c 0.2713,-0.4856 0.6733,-0.9068 1.1895,-1.2056 1.531,-0.8864 3.4908,-0.3645 4.3778,1.1671 L 148.88863,127.21177 c 0.3464,0.5125 0.5485,1.1308 0.5485,1.7958 0,1.7733 -1.4378,3.2111 -3.2108,3.2111 H 14.23213 v -0.007 c -0.5459,5e-4 -1.099,-0.1386 -1.6052,-0.4318 -1.531,-0.8863 -2.0537,-2.8465 -1.1671,-4.3778 z" style="fill:currentColor;fill-rule:evenodd" id="path1294"/><path d="m 12.63903,55.605567 c -1.5309,-0.8799 -2.059,-2.8347 -1.1792,-4.3657 0.8802,-1.531 2.8347,-2.0591 4.3657,-1.1792 L 80.229234,87.229065 144.63323,50.060667 c 1.531,-0.8799 3.4855,-0.3518 4.3651,1.1792 0.8796,1.531 0.3517,3.4858 -1.1793,4.3657 L 81.867334,93.666065 c -0.9603,0.5723 -2.1931,0.6227 -3.2315,0.026 z" style="opacity:1;fill:currentColor;fill-rule:evenodd" id="path1296"/><path d="m 83.440034,167.11087 c 0,1.773 -1.4377,3.2111 -3.2108,3.2111 -1.7736,0 -3.2114,-1.4381 -3.2114,-3.2111 V 90.920065 c 0,-1.773 1.4378,-3.2111 3.2114,-3.2111 1.7731,0 3.2108,1.4381 3.2108,3.2111 z" style="fill:currentColor;fill-rule:evenodd" id="path1298"/><path d="m 146.22633,137.25697 c 4.5555,0 8.2491,-3.693 8.2491,-8.2494 0,-4.5564 -3.6936,-8.2491 -8.2491,-8.2491 -4.5564,0 -8.2503,3.6927 -8.2503,8.2491 0,4.5564 3.6939,8.2494 8.2503,8.2494 z" style="fill:currentColor;fill-rule:evenodd" id="path1300"/><path d="m 146.22633,61.082867 c 4.5555,0 8.2491,-3.6938 8.2491,-8.2496 0,-4.5562 -3.6936,-8.2494 -8.2491,-8.2494 -4.5564,0 -8.2503,3.6932 -8.2503,8.2494 0,4.5558 3.6939,8.2496 8.2503,8.2496 z" style="fill:currentColor;fill-rule:evenodd" id="path1302"/><path d="m 14.23213,61.082867 c 4.5561,0 8.25,-3.6938 8.25,-8.2496 0,-4.5562 -3.6939,-8.2494 -8.25,-8.2494 -4.5555003,0 -8.2494003,3.6932 -8.2494003,8.2494 0,4.5558 3.6939,8.2496 8.2494003,8.2496 z" style="fill:currentColor;fill-rule:evenodd" id="path1304"/><path d="m 14.23213,137.25697 c 4.5561,0 8.25,-3.693 8.25,-8.2494 0,-4.5564 -3.6939,-8.2491 -8.25,-8.2491 -4.5555003,0 -8.2494003,3.6927 -8.2494003,8.2491 0,4.5564 3.6939,8.2494 8.2494003,8.2494 z" style="fill:currentColor;fill-rule:evenodd" id="path1306"/><path d="m 80.229234,175.36027 c 4.5558,0 8.2497,-3.6933 8.2497,-8.2494 0,-4.5562 -3.6939,-8.2494 -8.2497,-8.2494 -4.5564,0 -8.2497,3.6932 -8.2497,8.2494 0,4.5561 3.6933,8.2494 8.2497,8.2494 z" style="fill:currentColor;fill-rule:evenodd" id="path1308"/><path d="m 80.229234,99.170065 c 4.5558,0 8.2497,-3.6938 8.2497,-8.25 0,-4.5561 -3.6939,-8.2494 -8.2497,-8.2494 -4.5564,0 -8.2497,3.6933 -8.2497,8.2494 0,4.5562 3.6933,8.25 8.2497,8.25 z" style="fill:currentColor;fill-rule:evenodd" id="path1310"/><path d="m 80.229234,22.979567 c 4.5558,0 8.2497,-3.6932 8.2497,-8.2494 0,-4.5561 -3.6939,-8.2492996 -8.2497,-8.2492996 -4.5564,0 -8.2497,3.6931996 -8.2497,8.2492996 0,4.5562 3.6933,8.2494 8.2497,8.2494 z" style="fill:currentColor;fill-rule:evenodd" id="path1312"/></svg>
